<?xml version="1.0" encoding="UTF-8"?>
<svg id="Layer_2" data-name="Layer 2" xmlns="http://www.w3.org/2000/svg" viewBox="0 0 480.39 482.28">
  <defs>
    <style>
      .cls-1, .cls-2 {
        fill: #fff;
      }

      .cls-2 {
        fill-rule: evenodd;
      }

      .cls-3 {
        fill: #fc00bb;
      }

      .cls-4 {
        isolation: isolate;
      }

      .cls-5 {
        fill: #ff64e2;
      }
    </style>
  </defs>
  <g id="Rectangle_2_copy_2" data-name="Rectangle 2 copy 2" class="cls-4">
    <g>
      <g id="Rectangle_1_copy" data-name="Rectangle 1 copy">
        <path class="cls-3" d="M480,99.58c-4.02-48.31-39.62-87.65-86.1-97.3H86.88C37.49,12.54.39,56.29.39,108.72v263.28c0,60.04,48.68,108.72,108.72,108.72h262.56c56.97,0,103.69-43.81,108.33-99.58V99.58Z"/>
      </g>
      <g id="Color_Fill_3" data-name="Color Fill 3">
        <path class="cls-1" d="M123.92,175.87c-.43-.29-.9-.5-1.4-.66-3.6-1.13-19.26-5.97-23.02-6.25-4.26-.31-12.25-5.36-5.28-8.88,6.97-3.52,13.02-1.06,17.76,3.6,4.74,4.66,6.49,7.19,12.96,5.52,0,0,5.87-.96,5.4-10.5-.05-1.03-.39-2.02-.97-2.88-3-4.4-14.36-17.41-40.43-10.86,0,0-18.58,5.31-16.56,23.04,1.89,16.62,23.21,19.16,25.88,19.42.22.02.42.05.64.1,2.89.63,21.84,5.15,11.28,12.65-.69.49-1.49.81-2.32.95-3.55.59-13.75,1.66-17-4.55,0,0-5.92-14.06-16.6-6.75-1.29.88-2.16,2.28-2.36,3.84-.69,5.24-.14,17.69,19.45,22.11,25.07,5.66,37.51-4.57,41.04-14.16,0,0,6.61-15.69-8.46-25.73Z"/>
      </g>
      <g id="Color_Fill_4" data-name="Color Fill 4">
        <path class="cls-2" d="M191.64,205.56c-.26-1.06-2.45-8.54-12.33-6.62-.08.02-.16.04-.23.08-.92.42-7.33,3.1-7.09-5.09l.23-31.38c0-.55.45-1,1-1,3.15-.03,12.69-.77,12.69-8.41,0,0,.58-8-12.68-8.39-.55-.02-1-.46-1-1.01v-14.8s0-.06,0-.1c-.07-.73-1.08-8.83-11.04-8.83s-10.32,9.36-10.32,9.36v14.73c0,.48-.34.9-.82.99-2.32.42-8.78,2.17-8.78,8.76s6.1,7.5,8.45,7.66c.52.03.92.46.94.98l.94,37.44s-.44,17.52,19.92,17.52c19.11,0,20.11-10.36,20.16-11.63,0-.09,0-.17-.03-.25Z"/>
      </g>
      <g id="Ellipse_1_copy" data-name="Ellipse 1 copy">
        <circle class="cls-1" cx="233.55" cy="180.14" r="38.06" transform="translate(-58.97 217.9) rotate(-45)"/>
      </g>
      <g id="Color_Fill_5" data-name="Color Fill 5">
        <path class="cls-2" d="M323.91,146.64s-11.81-6.7-20.82-1.18c-2.7,1.65-6.07,1.51-8.68-.28-1.58-1.08-3.76-1.9-6.74-1.9-8.68,0-8.88,9.6-8.88,9.6v54.08c0,.68.08,1.37.27,2.03.72,2.59,3.14,8.7,9.81,8.7s9.44-5.91,10.54-8.79c.34-.89.5-1.84.49-2.79l-.23-30.42s-.68-11.24,6.34-13.54c1.63-.54,3.42-.37,5.02.26,3.96,1.56,14.52,4.82,17.45-3.29,3.63-10.04-4.56-12.48-4.56-12.48Z"/>
      </g>
      <g id="Color_Fill_6" data-name="Color Fill 6">
        <path class="cls-1" d="M386.28,191.83c-.44.25-.81.61-1.11,1.02-1.5,2.05-7,8.58-15.9,8.28-8.62-.3-12.42-5.5-14.09-9.62-.97-2.4.75-5.03,3.34-5.05l31.39-.21s13.26.2,11.28-14.4c-1.98-14.6-11.17-28.58-34.56-29.04s-34.42,22.89-34.08,35.52c0,0-1.93,38.88,33.84,38.88s34.32-19.2,34.32-19.2c0,0-.52-14.2-14.43-6.17ZM367.35,158.88c12.13,0,13.2,13.2,13.2,13.2l-26.88.24s1.55-13.44,13.68-13.44Z"/>
      </g>
      <g id="Color_Fill_7" data-name="Color Fill 7">
        <path class="cls-2" d="M124.63,250.23c-1.33-3.23-6.98-14.66-17.9-6.89-.58.42-1.06.97-1.36,1.62-1.65,3.59-9.24,17.47-31.16,26.09-.32.12-.62.29-.89.49-1.44,1.08-5.35,4.87-2.61,12.51.15.43.39.83.68,1.18,1.48,1.76,6.39,6.69,12.74,3.26,0,0,5.74-2.74,10.65-5.71,2.69-1.63,6.13.28,6.12,3.43l-.21,53.39c0,.18,0,.36.03.54.25,1.82,2.04,11.74,11.25,11.48,8.87-.26,11.59-8.89,12.13-11.04.08-.3.11-.61.11-.91l.71-87.85c0-.54-.1-1.07-.3-1.57Z"/>
      </g>
      <g id="Color_Fill_8" data-name="Color Fill 8">
        <path class="cls-1" d="M222.76,254.88c-.09-.16-.19-.32-.32-.45-1.98-2.17-19.39-20.2-42.29-11.79-23.03,8.46-25.68,34.64-25.9,37.44-.01.17,0,.32.02.48.56,3.59,8.17,46.26,50.08,28.43,1.62-.69,3.38.58,3.2,2.32-.67,6.58-3.48,19.41-15.3,21.31-.07.01-.13.02-.2.02-1.13.08-10.78.41-13.43-10.2-.1-.41-.3-.78-.6-1.08-2.05-2.02-10.58-9.45-17.06-.25-7.42,10.53,3.84,19.68,3.84,19.68,0,0,25.85,26.84,57.41-4.37.13-.13.24-.27.34-.42,1.96-3.2,22.82-39.07.23-81.12ZM192.26,295.91c-.08,0-.16,0-.24,0-1.39-.17-14.28-2.22-14.28-19.19s13.4-17.3,14.35-17.28c.04,0,.07,0,.1,0,.9.12,13.43,2.04,14.83,18.23,1.38,15.97-13.3,18.06-14.76,18.23Z"/>
      </g>
      <g id="Color_Fill_9" data-name="Color Fill 9">
        <path class="cls-2" d="M315.03,328.32h-28.55c-2.41,0-3.54-2.98-1.73-4.57,8.92-7.84,26.38-23.45,29.2-27.87.08-.13.17-.24.27-.34,1.59-1.59,14.82-15.68,5.67-36.67-.04-.09-.07-.18-.1-.27-.47-1.67-5.99-18.3-37.74-18.35-.1,0-.2,0-.31.02-2.54.28-34.42,4.44-32.25,36.55,0,.13.02.26.05.39.18.77,1.07,3.27,5.24,4.8,0,0,10.85,6.59,16.32-11.52,0,0,3.51-10.57,13.73-11.03.14,0,.27,0,.4.01,1.95.19,16.82,2.16,13.53,18.17-.04.21-.11.41-.2.61-.92,1.92-6.71,12.63-29.38,30.17-25.12,19.44-23.14,30.87-20.88,34.56,2.01,3.28,9.75,5.47,11.43,5.92.21.06.42.08.64.09l53.96.71c.15,0,.29,0,.44-.03,1.53-.25,10.09-2.08,10.09-11.49,0-10.32-9.84-9.84-9.84-9.84Z"/>
      </g>
      <g id="Color_Fill_10" data-name="Color Fill 10">
        <path class="cls-1" d="M413.26,292.5c-.03-1-.04-1.99-.02-2.99.2-8.02-.64-48.55-38.22-48.55s-37.74,38.11-37.55,48.67c.03,1.8.03,3.59-.02,5.39-.36,11.63.64,56.81,37.57,56.81s38.54-49.68,38.23-59.34ZM375.51,331.92s-14.88,4.72-14.88-37.2c0,0-1.37-35.04,14.16-35.04,0,0,15.6-3.6,15.6,35.76s-14.88,36.48-14.88,36.48Z"/>
      </g>
      <g id="Color_Fill_11" data-name="Color Fill 11">
        <path class="cls-3" d="M251.73,168.42c-.04-.25-.25-.42-.5-.42h-5.35c-.26,0-.47-.19-.5-.45-.27-2.36-2.11-13.23-12.92-13.23s-12.06,10.8-12.22,13.21c-.02.27-.24.47-.51.47h-5.35c-.24,0-.44.15-.49.38-2.24,9.52-4.84,28.5-5.16,30.82-.02.15.03.3.13.41l2.33,2.54c.1.1.23.16.37.16h42.27c.14,0,.28-.06.38-.17l2.11-2.32c.09-.1.14-.23.13-.36-.2-3.52-4.15-27.58-4.72-31.06ZM242.43,167.76h-18.57c-.29,0-.52-.24-.51-.52.08-2.1.95-9.8,9.11-9.8s10.06,7.53,10.47,9.73c.06.31-.18.59-.5.59Z"/>
      </g>
      <g id="Rectangle_2_copy_2-2" data-name="Rectangle 2 copy 2">
        <path class="cls-5" d="M223.11,167.76h-2.64c-.4,0-.72.32-.72.72v7.2c0,.4.32.72.72.72h2.64c.4,0,.72-.32.72-.72v-7.2c0-.4-.32-.72-.72-.72ZM245.19,167.76h-2.64c-.4,0-.72.32-.72.72v7.2c0,.4.32.72.72.72h2.64c.4,0,.72-.32.72-.72v-7.2c0-.4-.32-.72-.72-.72ZM240.15,193.2h-14.64c-.4,0-.72.32-.72.72v2.4c0,.4.32.72.72.72h14.64c.4,0,.72-.32.72-.72v-2.4c0-.4-.32-.72-.72-.72Z"/>
      </g>
    </g>
  </g>
</svg>